<?xml version="1.0" standalone="no"?>
<!DOCTYPE svg PUBLIC "-//W3C//DTD SVG 20010904//EN"
 "http://www.w3.org/TR/2001/REC-SVG-20010904/DTD/svg10.dtd">
<svg version="1.0" xmlns="http://www.w3.org/2000/svg"
 width="1920.000000pt" height="1562.000000pt" viewBox="0 0 1920.000000 1562.000000"
 preserveAspectRatio="xMidYMid meet">

<g transform="translate(0.000000,1562.000000) scale(0.100000,-0.100000)"
fill="#000000" stroke="none">
<path d="M0 7810 l0 -7810 9600 0 9600 0 0 7803 0 7804 -4192 6 c-2306 4
-6626 7 -9600 7 l-5408 0 0 -7810z m10155 4951 c960 -111 1726 -407 2448 -947
157 -118 409 -326 415 -345 4 -10 -921 -943 -1231 -1242 l-198 -190 -42 40
c-148 142 -409 321 -625 428 -399 198 -761 284 -1232 291 -631 9 -1157 -145
-1682 -492 -548 -363 -956 -884 -1203 -1538 -277 -734 -237 -1610 108 -2340
104 -222 248 -455 393 -636 91 -114 307 -334 424 -432 569 -479 1294 -732
2020 -705 539 21 980 132 1400 353 356 188 656 459 884 799 79 117 211 381
256 510 30 87 100 346 100 372 0 10 -272 13 -1375 13 l-1375 0 0 990 0 990
2379 0 2379 0 5 -22 c12 -48 48 -309 62 -453 87 -848 -12 -1725 -279 -2477
-360 -1012 -1014 -1825 -1899 -2360 -167 -101 -510 -270 -692 -341 -415 -162
-828 -260 -1365 -323 -185 -22 -739 -30 -952 -15 -1055 77 -2056 479 -2865
1151 -167 139 -503 472 -634 630 -780 935 -1188 2054 -1189 3255 0 898 225
1749 665 2516 671 1166 1795 2031 3085 2373 306 81 594 128 970 160 88 7 757
-3 845 -13z"/>
</g>
</svg>
